<?xml version="1.0" encoding="utf-8"?>
<!-- Generator: Adobe Illustrator 24.0.2, SVG Export Plug-In . SVG Version: 6.00 Build 0)  -->
<svg version="1.1" id="Layer_1" xmlns="http://www.w3.org/2000/svg" xmlns:xlink="http://www.w3.org/1999/xlink" x="0px" y="0px"
	 viewBox="0 0 100.6 96" style="enable-background:new 0 0 100.6 96;" xml:space="preserve">
<style type="text/css">
	.st0{fill-rule:evenodd;clip-rule:evenodd;fill:#D15700;}
	.st1{fill:#F5D400;}
	.st2{fill:#FFDD00;}
	.st3{opacity:0.5;fill:#FFFFFF;}
	.st4{fill:#FFFFFF;}
	.st5{fill:#FFBC0B;}
	.st6{fill:url(#SVGID_1_);}
	.st7{fill:url(#SVGID_2_);}
	.st8{fill:url(#SVGID_3_);}
	.st9{fill:url(#SVGID_4_);}
	.st10{fill:url(#SVGID_5_);}
	.st11{fill:#F09905;}
	.st12{fill:url(#SVGID_6_);}
	.st13{fill:url(#SVGID_7_);}
	.st14{fill:url(#SVGID_8_);}
	.st15{fill:url(#SVGID_9_);}
	.st16{fill-rule:evenodd;clip-rule:evenodd;}
	.st17{fill:#666666;}
	.st18{fill:#808080;}
	.st19{fill:#4D4D4D;}
	.st20{fill:url(#SVGID_10_);}
	.st21{fill:url(#SVGID_11_);}
	.st22{fill:url(#SVGID_12_);}
	.st23{fill:url(#SVGID_13_);}
	.st24{fill:url(#SVGID_14_);}
	.st25{fill:#333333;}
	.st26{fill:url(#SVGID_15_);}
	.st27{fill:url(#SVGID_16_);}
	.st28{fill:url(#SVGID_17_);}
	.st29{fill:url(#SVGID_18_);}
</style>
<g>
	<path class="st16" d="M79.2,96c-0.6,0-1.1-0.1-1.6-0.4L50.3,81.6L23,95.6c-0.5,0.3-1,0.4-1.6,0.4c-0.7,0-1.5-0.2-2.1-0.7
		c-1.1-0.8-1.6-2.1-1.4-3.4l4.9-30.3L1,40c-0.9-0.9-1.3-2.3-0.9-3.6C0.6,35.2,1.6,34.3,3,34l30.4-4.7L47.2,1.9C47.8,0.7,49,0,50.3,0
		c1.3,0,2.5,0.7,3.1,1.9l13.8,27.4L97.6,34c1.3,0.2,2.4,1.1,2.8,2.4c0.4,1.3,0.1,2.6-0.9,3.6L77.7,61.6L82.7,92
		c0.2,1.3-0.3,2.6-1.4,3.4C80.7,95.8,80,96,79.2,96z"/>
	<polygon class="st17" points="50.3,77.6 21.4,92.5 26.6,60.4 3.5,37.5 35.6,32.5 50.3,3.5 65,32.5 97.1,37.5 74,60.4 79.2,92.5 	
		"/>
	<polygon class="st18" points="50.3,10.3 62.9,35.3 90.7,39.6 70.8,59.4 75.3,87.1 50.3,74.2 25.3,87.1 29.8,59.4 9.9,39.6 
		37.7,35.3 	"/>
	<g>
		<polygon class="st3" points="81.5,39.7 61.9,36.7 50.3,13.7 38.7,36.7 13.2,40.6 30.4,57.7 		"/>
	</g>
	<path class="st4" d="M62.5,36.8l19.1,2.9L80,40.3l-17.1-2.6L62.5,36.8z M14.1,41.6l25.5-3.9L51,15.1l-0.7-1.4l-11.6,23l-25.5,3.9
		l17.2,17.1l0,0L14.1,41.6z"/>
	<polygon class="st19" points="50.3,66 34.9,73.9 37.7,56.8 25.4,44.6 42.5,42 50.3,26.5 58.1,42 75.2,44.6 62.9,56.8 65.7,73.9 	
		"/>
	<polygon class="st18" points="50.3,62.6 38.9,68.4 40.9,55.8 31.8,46.7 44.5,44.7 50.3,33.3 56.1,44.7 68.8,46.7 59.7,55.8 
		61.7,68.4 	"/>
	<g>
		<polygon class="st3" points="50.3,61.9 39.7,67.3 41.6,55.5 33.1,47.1 44.9,45.3 50.3,34.6 55.7,45.3 67.5,47.1 59,55.5 
			60.9,67.3 		"/>
	</g>
	<g>
		<g>
			<g>
				<polygon class="st4" points="45.5,46 50.8,35.5 50.3,34.6 44.9,45.3 33.1,47.1 33.8,47.8 				"/>
				<polygon class="st4" points="45.5,46 50.8,35.5 50.3,34.6 44.9,45.3 33.1,47.1 33.8,47.8 				"/>
			</g>
			<g>
				<polygon class="st4" points="56.3,46 67,47.6 67.5,47.1 55.9,45.3 				"/>
				<polygon class="st4" points="56.3,46 67,47.6 67.5,47.1 55.9,45.3 				"/>
			</g>
			<g>
				<polygon class="st4" points="42.2,56.2 41.6,55.7 39.7,67.3 40.4,67 				"/>
				<polygon class="st4" points="42.2,56.2 41.6,55.7 39.7,67.3 40.4,67 				"/>
			</g>
		</g>
		<g>
			<g>
				<polygon class="st3" points="45.5,46 50.8,35.5 50.3,34.6 44.9,45.3 33.1,47.1 33.8,47.8 				"/>
			</g>
			<g>
				<polygon class="st3" points="56.3,46 67,47.6 67.5,47.1 55.9,45.3 				"/>
			</g>
			<g>
				<polygon class="st3" points="42.2,56.2 41.6,55.7 39.7,67.3 40.4,67 				"/>
			</g>
		</g>
	</g>
	<linearGradient id="SVGID_1_" gradientUnits="userSpaceOnUse" x1="35.6451" y1="19.3985" x2="50.2994" y2="19.3985">
		<stop  offset="8.602150e-02" style="stop-color:#1A1A1A;stop-opacity:0.4"/>
		<stop  offset="0.5914" style="stop-color:#1A1A1A;stop-opacity:0.4"/>
	</linearGradient>
	<polygon class="st6" points="35.6,32.5 37.7,35.3 50.3,10.3 50.3,3.5 	"/>
	<linearGradient id="SVGID_2_" gradientUnits="userSpaceOnUse" x1="3.4908" y1="48.954" x2="29.8482" y2="48.954">
		<stop  offset="8.602150e-02" style="stop-color:#1A1A1A;stop-opacity:0.4"/>
		<stop  offset="0.5914" style="stop-color:#1A1A1A;stop-opacity:0.4"/>
	</linearGradient>
	<polygon class="st7" points="3.5,37.5 9.9,39.6 29.8,59.4 26.6,60.4 	"/>
	<linearGradient id="SVGID_3_" gradientUnits="userSpaceOnUse" x1="21.3697" y1="83.3662" x2="50.2994" y2="83.3662">
		<stop  offset="8.602150e-02" style="stop-color:#1A1A1A;stop-opacity:0.4"/>
		<stop  offset="0.5914" style="stop-color:#1A1A1A;stop-opacity:0.4"/>
	</linearGradient>
	<polygon class="st8" points="21.4,92.5 25.3,87.1 50.3,74.2 50.3,77.6 	"/>
	<linearGradient id="SVGID_4_" gradientUnits="userSpaceOnUse" x1="70.7505" y1="75.9374" x2="79.2291" y2="75.9374">
		<stop  offset="8.602150e-02" style="stop-color:#1A1A1A;stop-opacity:0.4"/>
		<stop  offset="0.5914" style="stop-color:#1A1A1A;stop-opacity:0.4"/>
	</linearGradient>
	<polygon class="st9" points="74,60.4 70.8,59.4 75.3,87.1 79.2,92.5 	"/>
	<linearGradient id="SVGID_5_" gradientUnits="userSpaceOnUse" x1="62.938" y1="36.0625" x2="97.108" y2="36.0625">
		<stop  offset="8.602150e-02" style="stop-color:#1A1A1A;stop-opacity:0.4"/>
		<stop  offset="0.5914" style="stop-color:#1A1A1A;stop-opacity:0.4"/>
	</linearGradient>
	<polygon class="st10" points="65,32.5 62.9,35.3 90.7,39.6 97.1,37.5 	"/>
	<g>
		<polygon class="st3" points="9.9,39.6 37.7,35.3 35.6,32.5 3.5,37.5 		"/>
	</g>
	<polygon class="st25" points="50.3,74.2 75.3,87.1 79.2,92.5 50.3,77.6 	"/>
	<polygon class="st25" points="29.8,59.4 25.3,87.1 21.4,92.5 26.6,60.4 	"/>
	<linearGradient id="SVGID_6_" gradientUnits="userSpaceOnUse" x1="25.3658" y1="50.708" x2="40.9283" y2="50.708">
		<stop  offset="8.602150e-02" style="stop-color:#1A1A1A;stop-opacity:0.4"/>
		<stop  offset="0.5914" style="stop-color:#1A1A1A;stop-opacity:0.4"/>
	</linearGradient>
	<polygon class="st12" points="25.4,44.6 31.8,46.7 40.9,55.8 37.7,56.8 	"/>
	<linearGradient id="SVGID_7_" gradientUnits="userSpaceOnUse" x1="42.4927" y1="35.6113" x2="50.2994" y2="35.6113">
		<stop  offset="8.602150e-02" style="stop-color:#1A1A1A;stop-opacity:0.4"/>
		<stop  offset="0.5914" style="stop-color:#1A1A1A;stop-opacity:0.4"/>
	</linearGradient>
	<polygon class="st13" points="42.5,42 44.5,44.7 50.3,33.3 50.3,26.5 	"/>
	<linearGradient id="SVGID_8_" gradientUnits="userSpaceOnUse" x1="56.0904" y1="44.3291" x2="75.2349" y2="44.3291">
		<stop  offset="8.602150e-02" style="stop-color:#1A1A1A;stop-opacity:0.4"/>
		<stop  offset="0.5914" style="stop-color:#1A1A1A;stop-opacity:0.4"/>
	</linearGradient>
	<polygon class="st14" points="58.1,42 56.1,44.7 68.8,46.7 75.2,44.6 	"/>
	<linearGradient id="SVGID_9_" gradientUnits="userSpaceOnUse" x1="50.2994" y1="68.2383" x2="65.7095" y2="68.2383">
		<stop  offset="8.602150e-02" style="stop-color:#1A1A1A;stop-opacity:0.4"/>
		<stop  offset="0.5914" style="stop-color:#1A1A1A;stop-opacity:0.4"/>
	</linearGradient>
	<polygon class="st15" points="50.3,62.6 50.3,66 65.7,73.9 61.7,68.4 	"/>
	<g>
		<g>
			<path class="st3" d="M67.5,47.1L59,45.8C53,52.2,45.6,60,39.9,66l-0.2,1.3l10.6-5.5l3.4,1.8l5.6-6.5L59,55.5L67.5,47.1z"/>
		</g>
		<g>
			<polygon class="st3" points="51.3,36.6 47.1,41 44.9,45.3 42.6,45.7 37.2,51.2 40.2,54.2 53.7,41.4 			"/>
		</g>
		<g>
			<path class="st3" d="M60.3,63.2L60,61.8l-3.4,3.4l1.9,1C59.1,65.1,59.7,64.1,60.3,63.2z"/>
		</g>
	</g>
</g>
</svg>
